<svg width="31" height="30" viewBox="0 0 31 30" fill="none" xmlns="http://www.w3.org/2000/svg">
<path fill-rule="evenodd" clip-rule="evenodd" d="M17.5081 27.8762C20.6494 25.3201 26.5149 19.6593 26.5149 13.0273C26.5149 7.0246 21.6169 2.15845 15.5748 2.15845C9.5328 2.15845 4.63477 7.0246 4.63477 13.0273C4.63477 19.6593 10.5003 25.3201 13.6416 27.8762C14.7805 28.803 16.3691 28.803 17.5081 27.8762ZM15.5748 15.4426C17.5888 15.4426 19.2215 13.8205 19.2215 11.8196C19.2215 9.81875 17.5888 8.1967 15.5748 8.1967C13.5608 8.1967 11.9281 9.81875 11.9281 11.8196C11.9281 13.8205 13.5608 15.4426 15.5748 15.4426Z" fill="#2E72DB"/>
</svg>
