<svg width="29" height="30" viewBox="0 0 29 30" fill="none" xmlns="http://www.w3.org/2000/svg">
<mask id="mask0_333:8353" style="mask-type:alpha" maskUnits="userSpaceOnUse" x="2" y="6" width="25" height="18">
<path fill-rule="evenodd" clip-rule="evenodd" d="M21.4186 6.23178C22.8356 6.23178 24.2534 6.46502 25.6701 7.07808C26.0941 7.26158 26.3582 7.71224 26.3586 8.18851V20.1426C26.3586 20.8393 25.8093 21.3412 25.1807 21.3412C25.0565 21.3412 24.9295 21.3216 24.8027 21.2801C23.6745 20.9109 22.5471 20.7631 21.4189 20.7631C19.1697 20.7631 16.9205 21.3505 14.6712 21.9378C12.422 22.5252 10.1728 23.1125 7.92354 23.1125C6.50647 23.1125 5.08867 22.8793 3.67197 22.2658C3.24794 22.0827 2.98389 21.6317 2.98389 21.1558V9.20136C2.98389 8.50465 3.53318 8.00275 4.16173 8.00275C4.28591 8.00275 4.41301 8.02234 4.53974 8.06379C5.66792 8.43306 6.79536 8.58076 7.92354 8.58076C10.1726 8.58076 12.4215 7.99352 14.6705 7.40627C16.9198 6.81893 19.1691 6.23159 21.4186 6.23178ZM7.02768 10.3446C6.23879 10.2933 5.47182 10.198 4.73699 10.0081V12.2866C5.86919 12.2866 6.81293 11.452 7.02768 10.3446ZM4.73699 20.7469V18.9466C5.99227 18.9466 7.00796 19.9741 7.06384 21.2602C6.24099 21.1919 5.47182 21.0224 4.73699 20.7469ZM11.7493 14.6722C11.7493 16.6696 13.0571 18.2895 14.671 18.2895C16.2842 18.2895 17.5928 16.6703 17.5928 14.6722C17.5928 12.6743 16.2846 11.0549 14.671 11.0549C13.0575 11.0549 11.7493 12.6743 11.7493 14.6722ZM24.605 19.3362C23.9652 19.1708 23.3008 19.0781 22.6211 19.0182C22.8355 18.0355 23.6255 17.2894 24.605 17.1613V19.3362ZM22.5669 8.12031C22.6016 9.32043 23.477 10.2922 24.6052 10.4395V8.59734C23.958 8.35506 23.2805 8.20208 22.5669 8.12031Z" fill="white"/>
</mask>
<g mask="url(#mask0_333:8353)">
<rect x="0.642578" y="0.180328" width="28.093" height="28.9836" fill="#2E72DB"/>
</g>
</svg>
