<svg width="31" height="32" viewBox="0 0 31 32" fill="none" xmlns="http://www.w3.org/2000/svg">
<path d="M7.97527 17.6284C9.4056 17.6284 10.567 17.1359 11.4515 16.5323C11.6364 16.4061 11.8776 16.4061 12.0625 16.5323C12.947 17.1359 14.1084 17.6284 15.5388 17.6284C16.9691 17.6284 18.1305 17.1359 19.015 16.5323C19.1999 16.4061 19.4411 16.4061 19.626 16.5323C20.5105 17.1359 21.6719 17.6284 23.1023 17.6284C23.6587 17.6284 24.221 17.5798 24.7705 17.465C25.1949 17.3764 25.6234 17.6924 25.6234 18.1392V24.1312C25.6234 26.286 23.9303 28.0328 21.8417 28.0328H19.3205C18.6243 28.0328 18.0599 27.4505 18.0599 26.7323V22.8306C18.0599 21.3941 16.9312 20.2295 15.5388 20.2295C14.1464 20.2295 13.0176 21.3941 13.0176 22.8306V26.7323C13.0176 27.4505 12.4532 28.0328 11.757 28.0328H9.23585C7.14725 28.0328 5.4541 26.286 5.4541 24.1312V18.1392C5.4541 17.6924 5.88264 17.3764 6.30704 17.465C6.85658 17.5798 7.41881 17.6284 7.97527 17.6284Z" fill="#2E72DB"/>
<path d="M6.58865 6.23278C7.43155 5.16164 8.7264 4.62296 10.0637 4.62296H21.0135C22.3508 4.62296 23.6457 5.16164 24.4886 6.23278C25.5679 7.60442 26.8839 9.59133 26.8839 11.1257C26.8839 13.7268 25.6233 15.0273 23.1021 15.0273C21.2428 15.0273 20.069 13.6126 19.581 12.8698C19.4644 12.6924 19.1764 12.6924 19.0598 12.8698C18.5717 13.6126 17.398 15.0273 15.5386 15.0273C13.6793 15.0273 12.5055 13.6126 12.0175 12.8698C11.9009 12.6924 11.6129 12.6924 11.4963 12.8698C11.0082 13.6126 9.83446 15.0273 7.97511 15.0273C5.45394 15.0273 4.19336 13.7268 4.19336 11.1257C4.19336 9.59133 5.50929 7.60442 6.58865 6.23278Z" fill="#2E72DB"/>
</svg>
