<svg width="25" height="24" viewBox="0 0 25 24" fill="none" xmlns="http://www.w3.org/2000/svg">
<path d="M17.9919 0.0820923C15.8932 0.0820923 13.8789 1.12275 12.5642 2.76725C11.2494 1.12275 9.23512 0.0820923 7.13639 0.0820923C3.42138 0.0820923 0.502441 3.19122 0.502441 7.1483C0.502441 12.0047 4.60343 15.9618 10.8152 21.9745L12.5642 23.6575L14.3131 21.9616C20.5249 15.9618 24.6259 12.0047 24.6259 7.1483C24.6259 3.19122 21.7069 0.0820923 17.9919 0.0820923ZM12.6848 20.0602L12.5642 20.1887L12.4435 20.0602C6.70216 14.5229 2.91478 10.8613 2.91478 7.1483C2.91478 4.57877 4.72404 2.65162 7.13639 2.65162C8.99389 2.65162 10.8031 3.92354 11.4424 5.68367H13.698C14.3252 3.92354 16.1344 2.65162 17.9919 2.65162C20.4043 2.65162 22.2135 4.57877 22.2135 7.1483C22.2135 10.8613 18.4262 14.5229 12.6848 20.0602Z" fill="#3781CB"/>
</svg>
